# xmcd
#
# Track frame offsets:
#	150
#	10320
#	23730
#	40382
#	56685
#	73527
#	81945
#	99332
#	111537
#	120685
#	132480
#	148052
#	161822
#
# Disc length: 2298 seconds
#
# Revision: 0
# Processed by: cddbd v1.5.1PL0 Copyright (c) Steve Scherf et al.
# Submitted via: audiograbber 1.81.02
#
DISCID=bb08f80d
DTITLE=Tim Thomas und Olaf Franke - Mit Freddy durch die Bibel 5 - Ein Tusch fü
DTITLE=r Josua (www.gerth.de)
DYEAR=2005
DGENRE=Musical
TTITLE0=Eugen sucht den richtigen Tusch
TTITLE1=Das Bobelbabelbibelbuch
TTITLE2=Eugen erzählt, von Anfang an
TTITLE3=So sprach Gott zu Josua
TTITLE4=Freddy erzählt weiter
TTITLE5=Josuas Lied
TTITLE6=Es wird spannend
TTITLE7=Eugen wird ungeduldig
TTITLE8=Military-Song
TTITLE9=Die Geschichte geht weiter
TTITLE10=Eugens Einlage
TTITLE11=Jericho-Rag
TTITLE12=Jericho wurd mir nix dir nix plattgemacht
EXTD=
EXTT0=
EXTT1=
EXTT2=
EXTT3=
EXTT4=
EXTT5=
EXTT6=
EXTT7=
EXTT8=
EXTT9=
EXTT10=
EXTT11=
EXTT12=
PLAYORDER=
